<?xml version="1.0" encoding="UTF-8"?>
<svg id="Layer_1" xmlns="http://www.w3.org/2000/svg" viewBox="0 0 1133.75 1352.35">
  <defs>
    <style>
      .cls-1 {
        fill: #fff;
      }

      .cls-2 {
        fill: #383838;
      }
    </style>
  </defs>
  <path class="cls-2" d="M142.7,544.71l-14.3-4.02c14.99-53.32,39.36-103.03,72.44-147.74,4.18-5.65,8.53-11.25,12.92-16.65l11.52,9.38c-4.25,5.22-8.46,10.65-12.5,16.11-32,43.25-55.58,91.34-70.08,142.92Z"/>
  <path class="cls-2" d="M993.94,541.71c-14.19-49.15-36.69-95.14-66.87-136.7-3.4-4.69-6.89-9.3-10.35-13.71l11.67-9.19c3.59,4.56,7.19,9.33,10.71,14.17,31.19,42.95,54.44,90.5,69.11,141.31l-14.27,4.12Z"/>
  <g>
    <path class="cls-2" d="M645.62,924.47l-1.66.02c-2.53,0-7.02-.13-12.84-.3l-16.09-66.9v-.02c-.23-3.74-.4-7.24-.53-10.36,2.4-1.51,4.63-3.16,6.71-4.95l24.41,82.49Z"/>
    <path class="cls-2" d="M696.45,951.7h-17.45l-47.07-122.54c2.1-3.57,3.76-7.39,4.92-11.4l59.59,133.94Z"/>
    <path class="cls-2" d="M749.1,959.17v.02c-3.88,5.65-7.49,11.61-10.68,17.83l-100.75-185.45-14.28-26.3-1.76-3.23c1.46-1.34,2.87-2.74,4.16-4.2l123.31,201.32Z"/>
    <path class="cls-2" d="M779.45,925c-4.05,3.54-8.32,7.64-12.59,12.2l-135.66-186.59c1.06-1.68,2.02-3.42,2.87-5.2l145.38,179.59Z"/>
    <path class="cls-2" d="M817.57,900.93c-.02.06-.02.15-.04.21l-16.11,8.62-164.1-172.84c.57-1.91,1.02-3.84,1.38-5.82l178.87,169.83Z"/>
    <path class="cls-2" d="M834.27,857.68c-2.72,4.97-5.31,10.23-7.66,15.71l-187.08-151.41c.02-2.04-.08-4.05-.32-6.07l195.06,141.77Z"/>
    <path class="cls-2" d="M635.33,700.86l224.12,121.76c-3.4,3.37-7.26,7.85-11.25,13.22l-210.79-129.1c-.57-1.99-1.27-3.97-2.08-5.88Z"/>
    <path class="cls-2" d="M927.5,871.56c-1.93,3.1-3.88,6.2-5.88,9.25l-10.55-6.45c-1.27-8.64-3.14-17.55-5.56-26.72l6.94,3.78c5.11,9,10.61,15.62,15.05,20.14Z"/>
    <path class="cls-2" d="M898.66,811.48l-5.31-2.36-3.99-12.03-7.96,6.71-250.6-111.49c-.98-1.55-2.06-3.06-3.23-4.5.04-.15.11-.3.15-.45l269.02,103.31c.17,7.47.85,14.39,1.91,20.8Z"/>
    <path class="cls-2" d="M901.38,744.62c-1.29,6.11-2.29,11.97-3.03,17.59l-268.92-79.57c.38-1,.81-2.04,1.23-3.08l270.72,65.05Z"/>
    <path class="cls-2" d="M914.2,701.07l-4.12,12.16c-.59,1.74-1.15,3.46-1.68,5.16l-275.73-43.59c.45-1.06.93-2.12,1.42-3.23l280.1,29.5Z"/>
    <path class="cls-2" d="M929.33,674.06l-292.92-7.6c.57-1.19,1.12-2.38,1.68-3.57l285.64-7.41c1.63,6.66,3.52,12.84,5.6,18.57Z"/>
    <path class="cls-2" d="M918.25,623.42c.15,1.49.32,2.95.49,4.39l-277.85,29.29c.68-1.38,1.36-2.76,2.04-4.14l273.88-43.32,1.44,13.77Z"/>
    <path class="cls-2" d="M993,619.98l-8.81.93c-10.08-7.77-20.16-13.71-28.29-17.47l15.07-2.38c7.39,8.23,14.92,14.37,22.03,18.91Z"/>
    <path class="cls-2" d="M951.42,572.74l-305.04,73.3c.87-1.74,1.74-3.44,2.57-5.07l293.88-86.97c2.7,6.81,5.56,13.05,8.6,18.74Z"/>
    <path class="cls-2" d="M670,623.97c1.83-.11,3.74-.23,5.75-.38l-22.26,8.55c.59-1.12,1.15-2.16,1.66-3.16.62-1.19,1.21-2.33,1.78-3.46,2.84-.91,8.85-1.27,13.07-1.55Z"/>
    <path class="cls-2" d="M728.94,595.36c3.44,1.55,6.83,2.84,10.23,3.86l-20.12,7.73c3.46-3.18,6.77-7,9.89-11.59Z"/>
    <path class="cls-2" d="M933.32,523.9c.06.23.11.45.17.68l-125.24,48.11c2.55-5.24,4.33-10.93,5.31-16.94l114.99-51.17,4.78,19.31Z"/>
    <path class="cls-2" d="M989.01,503.25l-4.88,1.87c-10.59-4.75-20.03-7.64-26.23-8.51l-8.68-1.21,30.86-13.73,8.93,21.58Z"/>
    <path class="cls-2" d="M964.31,449.79l-145.91,79.27c25.4-16.96,55.43-40.43,82.94-68.06l51.3-31.43,11.67,20.23Z"/>
    <path class="cls-2" d="M830.95,368.71l-25.11,31.03c3.02-14.45,5.35-27.41,7.01-37.87,5.58,2.86,11.69,5.12,18.1,6.84Z"/>
    <path class="cls-2" d="M309.66,368.71l25.11,31.03c-3.02-14.45-5.35-27.41-7.01-37.87-5.58,2.86-11.69,5.12-18.1,6.84Z"/>
    <path class="cls-2" d="M327.8,531.31c-.08.79-.17,1.55-.25,2.33l-154.33-83.85,11.67-20.23,64.01,39.2c21.65,20.29,47.62,40.85,78.91,62.54Z"/>
    <path class="cls-2" d="M158.74,482.26l28.27,12.56c-7.39.96-19.23,4.63-32.17,10.87l-2.29-.89c.25-.7.51-1.42.76-2.14,2.31-6.56,4.14-13.35,5.43-20.4Z"/>
    <path class="cls-2" d="M336.31,575.41l-126.07-48.43c.42-1.49.85-3.01,1.25-4.54l3.95-14.94,113.82,50.64c1.51,6.22,3.86,12.05,7.05,17.28Z"/>
    <path class="cls-2" d="M411.93,594.92c3.65,5.65,7.51,10.23,11.46,13.94l-26.38-10.14c4.29-1.12,8.57-2.7,12.82-4.73l2.1.93Z"/>
    <path class="cls-2" d="M484.79,632.44l-20.84-8c.74.02,1.46.02,2.19.02,2.04,0,4.03-.06,5.96-.11,1.59-.04,3.14-.08,4.63-.08.45,0,.83,0,1.21.02h.02l4.56,2.04c.51,1.36,1.29,3.48,2.27,6.11Z"/>
    <path class="cls-2" d="M489.73,645.7l-298.74-71.8c3.2-5.54,6.28-11.61,9.17-18.29l287.72,85.15c.59,1.59,1.21,3.25,1.85,4.95Z"/>
    <path class="cls-2" d="M170.2,601.64l13.07,2.08c-8.21,4.07-17.87,10-27.38,17.47l-9.85-1.04c7.62-4.2,15.92-10.12,24.15-18.51Z"/>
    <path class="cls-2" d="M493.85,656.8l-269.62-28.42c.3-2.04.57-4.12.83-6.22l1.4-11.61,265.84,42.04c.51,1.4,1.04,2.8,1.55,4.2Z"/>
    <path class="cls-2" d="M497.48,666.54l-284.79,7.39c2.21-5.62,4.22-11.72,6.01-18.32l277.41,7.19c.47,1.25.93,2.5,1.38,3.74Z"/>
    <path class="cls-2" d="M500.81,675.44l-267.2,42.26c-.55-1.85-1.15-3.71-1.74-5.6l-3.71-11.52,271.36-28.59c.45,1.21.87,2.36,1.29,3.46Z"/>
    <path class="cls-2" d="M503.93,683.88l-261,77.23c-.66-5.69-1.59-11.5-2.78-17.45l262.55-63.1c.47,1.25.89,2.38,1.23,3.31Z"/>
    <path class="cls-2" d="M503.04,689.93c-1.32,1.78-2.5,3.65-3.54,5.58l-240.82,107.13-11.35,5.05-5.24,2.33c1.19-6.66,1.91-13.56,2.14-20.69l258.82-99.41Z"/>
    <path class="cls-2" d="M495.55,704.47c-.7,1.99-1.25,4.03-1.7,6.09l-202.64,124.11c-3.95-5.39-7.77-9.87-11.08-13.18l215.41-117.02Z"/>
    <path class="cls-2" d="M492.88,726.1l-180.5,146.1c-2.31-5.48-4.84-10.74-7.49-15.71l187.85-136.53c-.06,2.04-.02,4.07.15,6.13Z"/>
    <path class="cls-2" d="M496.27,741.04l-159.98,168.49-14.71-8.15c-.11-.55-.23-1.12-.36-1.68l173.22-164.46c.49,1.97,1.1,3.9,1.83,5.79Z"/>
    <path class="cls-2" d="M503.57,754.36l-132.86,182.75c-4.27-4.63-8.49-8.74-12.5-12.31l142.03-175.47c1.02,1.74,2.12,3.42,3.33,5.03Z"/>
    <path class="cls-2" d="M499.84,777.22c-3.84,7.09-6.13,15.17-6.47,23.71-.04.87-.04,1.74-.04,2.59v.02l-94.4,173.73c-3.14-6.28-6.73-12.29-10.59-17.98l111.51-182.07Z"/>
    <path class="cls-2" d="M511.45,762.83c-3.5,2.99-6.58,6.47-9.13,10.34l7.34-11.97c.57.57,1.17,1.1,1.78,1.63Z"/>
    <path class="cls-2" d="M503.66,834.14v.02l-45.16,117.53h-15.66l-4.27,5.58,59.19-133.03c1.57,3.52,3.54,6.81,5.9,9.89Z"/>
    <path class="cls-2" d="M517.71,846.92c-.51,13.67-2.02,34.23-5.45,52.85l-4.8,19.99s-.02.02-.02.04c-.49,1.55-1,3.06-1.53,4.5-5.18.13-8.68.19-10.65.19l-3.37-.02,23.43-79.16c.79.57,1.57,1.1,2.4,1.61Z"/>
  </g>
  <g>
    <path class="cls-2" d="M805.87,192.08c-149.92-54.9-329.23-51.08-473.55-.49-47.99-31.83-109.45-12.97-139.84,32.96-9.87,14.9-15.43,32.17-17.55,49.92-5.45,45.23,7.51,85.93,31.88,122.9,31.71,48.18,82.69,89.99,137.25,127.08-11.67,49.81,29.8,80.67,72.67,47.94,26.27,60.13,64.6,23.94,77.95,44.02,0,.02,26.3,70.67,26.3,70.67v5.01c-22.45,20.12-15.54,55.52,11.8,66.62v8.93c-29.48,9.19-35.95,55.97,0,70.31,0,0-.36,69.59-17.15,100.96-10.17.28-17.81.45-20.93.42l-25.13,27.21h-19.4l-39.9,52.19h-12.05v93.64c22.81,2.19,318.81,2.31,342.97,0v-93.64h-12.05l-39.9-52.19h-19.4l-25.13-27.21c-4.14.04-14.52-.3-28.27-.74-16.62-31.5-17-100.64-17-100.64,35.97-14.35,29.5-61.12,0-70.31v-8.93c27.36-11.1,34.28-46.5,11.8-66.62,2.33-16.45,23.66-56.2,34.25-76.76,14.6-13.63,51.32,5.6,73.41-31.88,2.42-4.29,7.85-5.84,12.2-3.5,46.2,23.52,78.46-10.36,65.77-54.69,46.65-28.78,101.11-74.22,136.21-124.62,21.12-30.31,35.25-62.4,36.44-93.76,1.93-123.77-81.9-154.27-163.65-114.8ZM773.64,205.28v32.96s-64.79-16.11-124.35-17.98c57.68,11.23,96.27,19.84,120.61,32.58.49,4.16.34,7.53.17,9.36-.08.98-.17,1.51-.17,1.51,0,0-203.74-55.43-398.51,0v-10.87s46.82-22.45,75.28-25.83c-22.48-.76-77.15,10.1-77.15,10.1l-1.87-34.83c115.35-30.96,304.62-33.96,405.98,2.99ZM790.13,344.42l11.52-9.51c6.92,15.43,56.07,20.01,74.9,1.59.19-.17.4-.36.59-.57-.11.28-.21.57-.32.85-21.56,57.71-75.43,106.82-131.14,144.98,25.13-33.96,40.75-106.37,44.44-137.33ZM395.7,481.75c-55.99-38.35-110.11-87.76-131.46-145.82,18.36,19.1,68.49,14.58,75.49-1.02l11.52,9.51c3.69,30.96,19.31,103.38,44.44,137.33ZM393,554.7c-26.93,11.88-36.02-25.36-9.49-33.68-73.09-41.02-130.35-91.56-160.91-143.77-22.81-38.94-30.75-78.82-19.29-116.37,12.84-42,56.14-67.83,98.54-56.35,8.72,2.36,17.19,6.2,24.98,11.57,20.52,14.16,27.25,34.66,26,53.76-.98,14.98-6.83,29.08-14.81,38.6-14.05,16.77-39.96,19.97-58.51,11.57-13.39-6.09-22.94-18.23-21.46-35.72,3.57-41.77,37.18-27.91,37.18-27.91,15.43,7.3,12.63,34.17-11.33,32.58,20.1,14.79,55.8-12.25,28.84-42.74-28.1-31.77-71.42,0-74.41,29.95-1.49,26.3,2.74,50.24,10.68,71.97,35.02,96.03,142.53,149.09,151.55,174.35,6.3,17.7.13,27.61-7.56,32.2ZM433.9,548.03s20.4,28.08,52.06,38.56c-24.17,0-49.64-6.92-52.06-38.56ZM722.49,1095.17h-307.48v-66.3h307.48v66.3ZM683.74,987.67s10.91,12.54,15.22,16.85h-260.41l13.41-16.85h231.78ZM630.87,949.47s7.11,11.99,13.86,17.11h-151.94s9.91-13.84,11.31-17.11h126.77ZM547.95,834.72h34.08s-.93,63.71,14.79,94.21c-14.75,6.47-62.25,3.86-61.42,0,0,0,16.85-39.14,12.54-94.21ZM590.95,822.58h-48.33c-5.11.06-28.4-14.2-7.87-33.83,19.63,2.93,41.13,2.74,64.18,0,0,0,19.84,18.21-7.98,33.83ZM586.43,780.79v4.58h-40.64v-4.58h40.64ZM548.33,776.61v-17.91h35.57v17.91h-35.57ZM578.62,747.55h-30.79c-7.41,0-14.58-3.97-18.95-11.23-5.16-8.55-5.45-19.97,12.03-27,0,0,33.21,3.63,51.19,0,13.5,3.33,29.22,36.1-13.48,38.22ZM537.66,697.44v-5.65c0-.64.55-1.12,1.19-1.02,17.51,2.93,35.74,2.8,54.56.4.62-.06,1.17.4,1.17,1.04v5.22c0,.51-.36.96-.87,1.04-17.7,3.29-36.06,3.57-55.2,0-.49-.08-.85-.53-.85-1.04ZM606.84,636.17c-.06.19-6.43,20.44-11.04,42.68l-1.04,5.07c-20.12,3.97-39.35,4.46-57.3,0l-1.06-5.07c-4.61-22.24-10.97-42.49-11.04-42.68l-2.63-8.34c28.91,3.44,57.83,3.44,86.76-.02l-2.65,8.36ZM621.36,610.11c-.25,2.93-2.55,5.28-5.48,5.58-35,3.52-68.25,3.65-99.52-.08-2.38-.3-4.37-1.93-5.09-4.2-1.36-4.22.02-7.49,1.46-9.53,1.1-1.55,2.97-3.42,4.73-2.7,15.17,6.22,80.82,5.6,98.01-.23,2.82-.98,5.5,2.44,5.86,5.39.23,1.87.17,3.95.02,5.77ZM648.99,584.47c31.64-10.48,52.06-38.56,52.06-38.56-2.44,31.64-27.91,38.56-52.06,38.56ZM619.15,581.59c-7.64,2.82-15.75,4.22-23.88,4.22h-49.47c-6.24,0-12.46-.76-18.42-2.5-109.58-31.77-149.22-159.53-157.73-291.14,80.16-25.38,254.87-34.08,364.34-10.17,12.42,2.72,24,5.86,34.51,9.44.72.23,1.44.47,2.14.72,0,0,11.42,228.87-151.49,289.42ZM917.4,380.29c-30.99,51.13-87.44,100.51-159.11,140.73,26.51,8.32,17.42,45.57-9.51,33.68-7.66-4.58-13.86-14.5-7.53-32.2,8.89-24.98,114.16-77.15,150.37-171.19,8.7-22.56,13.41-47.54,11.86-75.13-2.99-29.95-46.33-61.72-74.41-29.95-26.97,30.5,8.74,57.54,28.84,42.74-23.98,1.59-26.78-25.28-11.33-32.58,0,0,33.62-13.86,37.16,27.91,1.59,18.74-9.47,31.33-24.34,36.91-18.27,6.86-42.3,3.14-55.6-12.76-7.53-8.98-13.2-22.07-14.62-36.1-2.02-19.8,4.37-41.49,25.79-56.26,7.79-5.37,16.26-9.21,25-11.57,42.4-11.48,85.7,14.35,98.52,56.35,11.78,38.52,3.12,79.48-21.07,119.4Z"/>
    <path class="cls-2" d="M765,288.95c.74,161.13-79.37,241.86-158.03,281.93,150.19-112.73,123.52-291.37,123.52-291.37,12.42,2.72,24,5.86,34.51,9.44Z"/>
    <path class="cls-2" d="M426.53,448.78c75.87,124.64,202.24,120.29,265.16-24.97,0,0-24.86,98.96-96.66,134.2-26.49,13-57.74,13.47-83.92-.12-31.43-16.32-63.81-51-84.59-109.1Z"/>
    <path class="cls-2" d="M360.26,304.35c80.02-20.1,162.8-25.48,244.91-21.15,0,0,16.34.97,16.34.97l-16.36-.17c-59.79-.55-119.74,5.03-178.35,16.71-21.01,4.22-42.41,9.3-62.71,15.79,0,0-3.82-12.15-3.82-12.15h0Z"/>
    <path class="cls-2" d="M360.85,325.86c49.45-13.36,100.28-20.23,151.34-22.71-12.66,1.35-25.29,2.82-37.85,4.8-25.1,3.79-50.01,8.9-74.57,15.27-12.23,3.19-24.5,6.69-36.29,10.72l-2.63-8.07h0Z"/>
    <path class="cls-2" d="M372.26,337.95c25.45-6.71,51.34-11.21,77.37-14.73-12.8,2.76-25.51,5.85-38.11,9.26-12.51,3.44-25.12,7.16-37.29,11.52,0,0-1.97-6.05-1.97-6.05h0Z"/>
    <path class="cls-2" d="M726.13,266.13c-1.95,49.93-10.23,99.14-22.52,147.44,1.99-12.22,3.86-24.45,5.27-36.72,2.94-24.48,4.63-49.13,5.07-73.75.2-12.25.14-24.67-.55-36.63l12.73-.33h0Z"/>
    <path class="cls-2" d="M706.12,266.13c-1.85,30.67-6.58,60.8-12.66,90.83,1.42-22.67,1.92-45.42,1.18-68.11-.25-7.5-.61-15.13-1.26-22.39l12.73-.33h0Z"/>
    <path class="cls-2" d="M350.7,215.97c87.94-23.8,180.49-31.16,270.8-19.17-45-4.3-90.63-3.73-135.5,1.57-44.6,5.11-89.4,14-132.02,27.69,0,0-3.29-10.09-3.29-10.09h0Z"/>
    <path class="cls-2" d="M351.03,231.21c41.01-10.92,82.95-17.05,125.17-20.38-10.43,1.54-20.83,3.17-31.18,5.12-20.67,3.8-41.19,8.51-61.44,14.1-10.08,2.8-20.21,5.82-29.92,9.22l-2.63-8.07h0Z"/>
    <path class="cls-2" d="M787.73,224.04c-34.58-11.61-70.48-19.58-106.48-25.49,27.38,2.82,54.64,6.99,81.55,12.84,9,1.97,17.91,4.06,26.89,6.6l-1.97,6.05h0Z"/>
    <path class="cls-2" d="M783.09,233.11c-26.45-7.66-53.44-13.71-80.7-18.36,27.55,2.54,55.02,6.52,82.24,12.18l-1.54,6.18h0Z"/>
    <path class="cls-2" d="M781.76,267.29c-14.93-6.76-30.17-12.97-45.61-18.7,16.05,3.7,32.02,7.92,47.85,12.74l-2.25,5.96h0Z"/>
    <path class="cls-2" d="M620.18,598.17c-.5,8.48-37.07,8.39-44.36,8.6-5.02.1-10.04-.03-15.06-.05,14.99-.37,30.12-.79,44.9-3.43,4.01-1,9.3-1.63,12.3-4.62.12-.09.1-.43.14-.07l2.08-.42h0Z"/>
    <path class="cls-2" d="M627.22,607.56c-.66,1.16-1.21,1.38-2.15,2.02-8.43,4.01-18.14,3.79-27.23,4.23,7.03-1.24,14.12-2.57,20.72-5.21,1.75-.78,3.65-1.52,4.9-2.93,0,.01.09-.21-.13.2l3.89,1.7h0Z"/>
    <path class="cls-2" d="M623.52,601.76c-1.63,6.88-24.66,7.49-30.95,7.96-3.52.2-7.04.22-10.56.32,10.46-.76,21.07-1.54,31.23-4.22,2.83-.91,6.12-1.64,8.1-3.94.04-.05.08-.31.06,0l2.12-.11h0Z"/>
    <path class="cls-2" d="M598.61,627.28c-9.58,15.8-12.81,35.01-14.65,53.21,0,0-.06-7.11-.06-7.11.41-16.85,1.94-34.1,9.35-49.54,0,0,5.36,3.44,5.36,3.44h0Z"/>
    <path class="cls-2" d="M587.9,626.29c-5.68,10.12-8.51,21.93-9.92,33.44-.02-8.98.91-17.99,3.21-26.71.8-2.95,1.65-5.78,2.98-8.77l3.73,2.03h0Z"/>
    <path class="cls-2" d="M607.03,626.5c-6.08,9.89-9.39,21.57-11.25,33.01.34-8.98,1.63-17.94,4.29-26.55.92-2.92,1.88-5.71,3.33-8.64l3.64,2.18h0Z"/>
    <path class="cls-2" d="M609.57,722.83c-18.41,5.81-38.17,4.32-56.97,1.59,13.99,1.11,28.36,1.06,42.14-1.63,4.5-.92,9.18-2.11,13.1-3.84l1.73,3.88h0Z"/>
    <path class="cls-2" d="M609.49,730.93c-11.82,3.12-24,2.9-35.99,1.31,8.84.17,17.74-.57,26.32-2.68,2.79-.7,5.69-1.55,8.16-2.59l1.51,3.97h0Z"/>
    <path class="cls-2" d="M604.27,716.35c-11.61,3.82-23.79,4.33-35.84,3.46,11.58-.52,23.57-2.45,34.1-7.33,0,0,1.74,3.87,1.74,3.87h0Z"/>
    <path class="cls-2" d="M518.81,632.14c16,2.94,32.43,3.89,48.72,3.51-8.15.92-16.36,1.45-24.6,1.59-8.31.12-16.49-.07-24.8-.92,0,0,.68-4.19.68-4.19h0Z"/>
    <path class="cls-2" d="M518.81,638.32c10.07,2.16,20.54,3.4,30.87,4.14-10.53.67-20.96.85-31.55.05,0,0,.68-4.19.68-4.19h0Z"/>
    <path class="cls-2" d="M536.87,690.79c13.71,4.13,28.47,4.19,42.7,3.84-14.43.87-29.13,1.37-43.25-2.34,0,0,.54-1.5.54-1.5h0Z"/>
    <path class="cls-2" d="M609.69,738.61c-14.45,3.39-29.12,2.42-43.7,1.1,7.2.03,14.42-.2,21.57-.95,6.87-.74,14.3-1.82,20.68-4.13,0,0,1.45,3.99,1.45,3.99h0Z"/>
    <path class="cls-2" d="M534.73,692.94c6.49,2.26,13.46,3.19,20.29,3.92-7-.21-14.02-.6-20.84-2.42,0,0,.54-1.5.54-1.5h0Z"/>
    <path class="cls-2" d="M541.94,712.08c16.53,2.12,33.19,2.66,49.69,0-16.19,4.09-33.44,3.55-49.69,0h0Z"/>
    <polygon class="cls-2" points="582.93 758.7 581.87 769.53 580.81 758.7 582.93 758.7 582.93 758.7"/>
    <polygon class="cls-2" points="576.38 758.7 575.32 764.76 574.26 758.7 576.38 758.7 576.38 758.7"/>
    <polygon class="cls-2" points="579.75 758.7 578.69 774.4 577.63 758.7 579.75 758.7 579.75 758.7"/>
    <polygon class="cls-2" points="548.06 759.64 572.65 760.7 548.06 761.76 548.06 759.64 548.06 759.64"/>
    <polygon class="cls-2" points="545.01 781.32 567.22 781.85 545.01 782.38 545.01 781.32 545.01 781.32"/>
    <polygon class="cls-2" points="544.4 782.83 554.77 783.36 544.4 783.89 544.4 782.83 544.4 782.83"/>
    <polygon class="cls-2" points="548.06 762.46 561.32 763 548.06 763.53 548.06 762.46 548.06 762.46"/>
    <polygon class="cls-2" points="548.06 764.23 556.54 764.76 548.06 765.29 548.06 764.23 548.06 764.23"/>
    <path class="cls-2" d="M535.39,791.35c20.82,2.82,41.88,2.06,62.73,0-20.68,3.49-42.11,4.23-62.73,0h0Z"/>
    <path class="cls-2" d="M538.44,819.81c18.68-.71,37.37-.72,56.05,0-18.68.72-37.37.71-56.05,0h0Z"/>
    <path class="cls-2" d="M595.45,783.93c4.09,10.26,2.33,22.42-3.98,31.29,2.33-8.72,1.01-18.87-5.04-25.7,0,0,9.01-5.6,9.01-5.6h0Z"/>
    <path class="cls-2" d="M580.59,833.11c-4.73,28.3-1.34,57.98,6.87,85.42-2.54-6.82-4.96-13.71-6.81-20.79-5.72-21.41-8.5-43.51-6.33-65.74,0,0,6.27,1.11,6.27,1.11h0Z"/>
    <path class="cls-2" d="M569.89,832.93c-2.47,12.18-2.97,24.83-2.6,37.28-1.38-9.36-2.15-18.88-2.06-28.37.04-3.2.14-6.33.48-9.64l4.18.74h0Z"/>
    <path class="cls-2" d="M569.37,885.91c2.62,10.97,5.42,21.77,8.44,32.63-4.38-10.37-7.23-21.43-8.44-32.63h0Z"/>
    <polygon class="cls-2" points="497.34 950.98 588.97 953.1 497.34 955.22 497.34 950.98 497.34 950.98"/>
    <polygon class="cls-2" points="490.95 956.93 536.51 959.05 490.95 961.17 490.95 956.93 490.95 956.93"/>
    <polygon class="cls-2" points="440.41 991 532.04 993.12 440.41 995.24 440.41 991 440.41 991"/>
    <polygon class="cls-2" points="434.02 996.95 479.58 999.07 434.02 1001.19 434.02 996.95 434.02 996.95"/>
    <polygon class="cls-2" points="637.72 955.22 595.68 953.1 637.72 950.98 637.72 955.22 637.72 955.22"/>
    <polygon class="cls-2" points="644.11 961.17 598.55 959.05 644.11 956.93 644.11 961.17 644.11 961.17"/>
    <polygon class="cls-2" points="691.66 995.24 649.61 993.12 691.66 991 691.66 995.24 691.66 995.24"/>
    <polygon class="cls-2" points="698.04 1001.19 652.49 999.07 698.04 996.95 698.04 1001.19 698.04 1001.19"/>
    <polygon class="cls-2" points="399.71 1034.61 569.9 1037.79 399.71 1040.97 399.71 1034.61 399.71 1034.61"/>
    <polygon class="cls-2" points="399.71 1058.2 528.92 1061.38 399.71 1064.57 399.71 1058.2 399.71 1058.2"/>
    <polygon class="cls-2" points="399.71 1066.07 572.74 1069.25 399.71 1072.43 399.71 1066.07 399.71 1066.07"/>
    <polygon class="cls-2" points="399.71 1042.47 489.97 1045.65 399.71 1048.84 399.71 1042.47 399.71 1042.47"/>
    <polygon class="cls-2" points="399.71 1050.34 489.97 1053.52 399.71 1056.7 399.71 1050.34 399.71 1050.34"/>
    <polygon class="cls-2" points="399.71 1073.93 489.97 1077.11 399.71 1080.3 399.71 1073.93 399.71 1073.93"/>
    <polygon class="cls-2" points="399.71 1081.8 518.81 1084.98 399.71 1088.16 399.71 1081.8 399.71 1081.8"/>
    <polygon class="cls-2" points="731.34 1040.97 624.71 1037.79 731.38 1034.61 731.34 1040.97 731.34 1040.97"/>
    <polygon class="cls-2" points="731.36 1064.57 665.16 1061.38 731.36 1058.2 731.36 1064.57 731.36 1064.57"/>
    <polygon class="cls-2" points="731.36 1072.43 685.38 1069.25 731.36 1066.07 731.36 1072.43 731.36 1072.43"/>
    <polygon class="cls-2" points="731.36 1048.84 664.98 1045.65 731.36 1042.47 731.36 1048.84 731.36 1048.84"/>
    <polygon class="cls-2" points="731.36 1056.7 644.11 1053.52 731.36 1050.34 731.36 1056.7 731.36 1056.7"/>
    <polygon class="cls-2" points="731.36 1080.3 639.69 1077.11 731.36 1073.93 731.36 1080.3 731.36 1080.3"/>
    <polygon class="cls-2" points="731.36 1088.16 689.5 1084.98 731.36 1081.8 731.36 1088.16 731.36 1088.16"/>
    <path class="cls-2" d="M784.64,288.65c-1-35.55,16.6-71.36,53.51-79.41-35.12,10-50.13,44.7-47.17,78.84,0,0-6.34.57-6.34.57h0Z"/>
    <path class="cls-2" d="M796.03,310.69c-3.79-25.06.04-53.17,18.08-72.04-3.79,5.01-7.16,10.31-9.33,16.15-6.6,17.15-6.4,36.71-2.08,54.3,0,0-6.67,1.59-6.67,1.59h0Z"/>
    <path class="cls-2" d="M809.86,271.3c-3.1,19.68.41,40.65,10.99,57.59,0,0-5.99,3.33-5.99,3.33-9.02-18.82-10.5-40.9-4.99-60.92h0Z"/>
    <path class="cls-2" d="M856.19,258.9c22.59,2.22,28.17,26.98,17.34,44.25-10.39,17.72-32.67,21.98-49.7,11.29,17.15,6.67,36.36,3.09,46.07-13.48,9.93-15.93,5.89-36.78-13.71-42.06h0Z"/>
    <path class="cls-2" d="M903.36,222.38c8.53,6,14.81,15.1,18.28,24.87-6.09-8.39-11.79-16.74-18.28-24.87h0Z"/>
    <path class="cls-2" d="M931.35,274.74c6.03,21.87,3.12,45.68-5.74,66.37,6.02-21.58,8.85-44.07,5.74-66.37h0Z"/>
    <path class="cls-2" d="M920.08,354.93c-8.32,21.94-21.95,41.7-38.07,58.64,13.86-18.8,27.13-37.97,38.07-58.64h0Z"/>
    <path class="cls-2" d="M826.08,463.77c-18.29,22.88-42.56,40.71-68.31,54.4-.12.12-4.1,2.03-3.99,2.23-.14.43.02.64.47.84,6.8,3.43,13.26,9.36,14.6,17.16.46,2.72.15,5.49-.71,8,.92-5.29-.74-10.56-4.12-14.34-3.12-3.7-7.3-6.26-11.7-8.18-2.81-1.43-2.47-5.78.23-7,5.3-3.03,11.71-6.88,16.94-10.12,20.01-12.73,39.14-26.87,56.57-43.01h0Z"/>
    <path class="cls-2" d="M349.09,288.08c1.99-24.25-4.9-51.59-24.77-67.29-6.55-5.27-14.29-9.03-22.4-11.56,26.62,5.83,44.93,27.12,50.72,53.29,2.01,8.53,3.06,17.09,2.79,26.12l-6.34-.57h0Z"/>
    <path class="cls-2" d="M337.38,309.1c5.76-23.47,4.28-50.91-11.41-70.46,4.22,4.63,8.13,9.7,10.89,15.45,8.53,17.46,10.07,37.45,7.19,56.59,0,0-6.67-1.59-6.67-1.59h0Z"/>
    <path class="cls-2" d="M330.21,271.3c5.51,20.02,4.03,42.1-4.99,60.92,0,0-5.99-3.33-5.99-3.33,10.57-16.94,14.09-37.91,10.99-57.59h0Z"/>
    <path class="cls-2" d="M236.72,222.38c-6.5,8.13-12.19,16.48-18.28,24.87,3.48-9.77,9.76-18.87,18.28-24.87h0Z"/>
    <path class="cls-2" d="M208.72,274.74c-3.11,22.3-.28,44.79,5.74,66.37-8.86-20.69-11.77-44.5-5.74-66.37h0Z"/>
    <path class="cls-2" d="M220,354.93c10.94,20.67,24.21,39.84,38.07,58.64-16.12-16.94-29.75-36.7-38.07-58.64h0Z"/>
    <path class="cls-2" d="M313.99,463.77c17.43,16.14,36.57,30.28,56.57,43.01,5.24,3.25,11.63,7.09,16.94,10.12,2.69,1.21,3.05,5.57.23,7-4.4,1.92-8.58,4.48-11.7,8.18-3.38,3.78-5.04,9.05-4.12,14.34-.86-2.51-1.16-5.28-.71-8,1.34-7.8,7.8-13.73,14.6-17.16.46-.2.61-.41.47-.84.14-.19-3.84-2.1-3.99-2.23-25.75-13.69-50.02-31.52-68.31-54.4h0Z"/>
  </g>
  <path class="cls-2" d="M623.4,765.27l14.28,26.3c-2.19-10.19-7.22-19.31-14.28-26.3ZM500.09,776.8l1.99-3.27c-.72,1.06-1.4,2.16-1.99,3.27ZM383.36,1003.89v2.04l1.1-2.04h-1.1Z"/>
  <polygon class="cls-2" points="258.68 802.65 247.32 807.7 251.31 796.24 258.68 802.65"/>
  <polygon class="cls-2" points="565.99 0 581.99 49.24 633.76 49.24 591.87 79.67 607.87 128.92 565.99 98.48 524.1 128.92 540.1 79.67 498.21 49.24 549.99 49.24 565.99 0"/>
  <polygon class="cls-2" points="370.31 52.1 388.14 85.83 425.72 79.29 399.16 106.67 416.99 140.4 382.74 123.59 356.17 150.97 361.57 113.21 327.32 96.4 364.91 89.87 370.31 52.1"/>
  <polygon class="cls-2" points="761.66 52.1 743.83 85.83 706.25 79.29 732.81 106.67 714.99 140.4 749.23 123.59 775.8 150.97 770.4 113.21 804.65 96.4 767.06 89.87 761.66 52.1"/>
  <path class="cls-2" d="M1010.24,783.83c5.23.86,10.36,1.29,15.4,1.29,19.7,0,37.85-6.59,54.13-19.69,35.69-28.72,52.33-82.83,53.25-100.55l.73-14.08-13.34,4.55c-49.5,16.89-78.31,39.27-95.06,60.1,4.18-17.33,7.61-34.83,10.24-52.45l3.06-.17c26.01-1.45,47.5-12.58,63.86-33.07,28.59-35.79,33.07-92.22,30.12-109.72l-2.34-13.9-12.04,7.35c-40.66,24.82-63.57,50.34-76.27,72.81.24-14.83-.09-29.68-1.02-44.53l2.38-1.97c20.05-16.63,30.71-38.35,31.69-64.56,1.71-45.78-28.23-93.81-41.01-106.13l-10.15-9.79-5.31,13.06c-48.54,119.41,10.4,165.77,12.93,167.68l1.09.82c.32,8.05.46,16.1.43,24.15-1.16-2.15-2.44-4.28-3.86-6.39-19.59-29.16-59.83-45.44-73.31-47.32l-10.71-1.49,2.6,10.5c21.58,87.13,70.95,96.91,81.66,98.01-2.28,10.18-2.6,18.81-2.26,25.24-2.89,19.95-6.82,39.74-11.74,59.29.39-10.69-1.94-21.32-7.04-31.8-15.37-31.59-52.97-53.27-66.06-57l-10.4-2.96,1.12,10.75c10.27,98.31,66.88,108.39,69.28,108.77l5.15.82c-7.6,24.95-16.8,49.43-27.51,73.25-1.81-40.26-30.31-80.33-42.16-90.46l-9.58-8.19-4.04,11.94c-36.92,109.12,18.13,147.32,20.5,148.89l2.2,1.46c-16.82,28.29-35.84,55.28-56.85,80.58,9.48-23.34,14.1-60.02-3.89-114.37l-3.96-11.96-9.63,8.12c-12.12,10.22-41.68,51.28-42.87,92.2-.68,23.43,7.53,43.43,24.43,59.45l3.16,2.99c-17.35,17.82-35.75,34.58-55.14,50.11,11.61-21.44,20.11-54.3,14.66-103.81l-1.38-12.52-11.11,5.94c-13.99,7.47-51.45,41.46-61.14,81.24-5.55,22.77-1.68,44.04,11.5,63.23l.09.13c-6.88,4.46-13.85,8.79-20.92,12.96l7.4,29.73s12.89-12.76,16.47-15.1l5.45,5.15c19.51,18.43,42.61,27.74,68.79,27.74,3.18,0,6.4-.14,9.67-.41,52.74-4.43,103.65-45.48,115.99-61.85l9.81-13.01-15.72-4.27c-55.82-15.14-96.74-13.23-126.02-5.04,10.41-9.13,20.52-18.62,30.3-28.43l6.5,3.95c16.47,10,33.77,15.02,51.69,15.02,10.07,0,20.34-1.58,30.76-4.75,50.64-15.4,91.8-66.21,100.43-84.81l6.86-14.77-16.27-.87c-56.99-3.04-96.29,7.1-123.17,20.96,11.75-15.49,22.81-31.51,33.12-47.99l4.93,2.11c13.3,5.69,26.65,8.54,39.99,8.54,14.42,0,28.82-3.33,43.08-9.98,47.97-22.37,81.57-78.46,87.51-98.09l4.71-15.59-16.23,1.42c-63.65,5.58-103.04,24.43-127.32,44.41,8.29-17.57,15.78-35.51,22.44-53.75l5.3.87ZM1110.84,679.26c-5.58,19.85-18.96,51.93-43.04,71.31-5.66,4.55-11.61,8.09-17.82,10.63,2.51-2.1,4.99-4.23,7.45-6.43,6.33-5.7,12.36-11.72,18.05-18-11.99,10.62-24.96,20.25-38.79,28.27-1.85.32-3.73.57-5.62.73,18.53-11.31,35.43-24.9,50.14-40.89,5.79-6.22,10.86-13.05,15.61-19.99-19.64,23.39-45.64,41.16-73.31,53.78.51-1.82,1.15-3.79,1.91-5.85,4.9-2.77,9.66-5.71,14.39-8.83,7.1-4.71,13.95-9.77,20.5-15.14-10.33,6.72-21.15,12.79-32.36,17.91,9.22-19.75,31.1-46.56,82.88-67.49ZM949.25,633.11c13.88,7.56,35.57,23.05,45.94,44.36,2.43,5,4.02,10.04,4.86,15.1-4.08-8.04-8.72-15.83-13.87-23.2,5.87,10.74,10.84,22.04,14.46,33.71-.07,1.45-.21,2.89-.41,4.34-5.28-15.75-12.54-30.67-21.95-44.37-3.66-5.39-7.89-10.35-12.28-15.09,14.13,18.68,22.97,41.15,27.67,63.99-1.28-.69-2.64-1.5-4.05-2.43-.3-1-.6-2-.91-3-2.98-9.32-6.69-18.45-11.04-27.19,3.26,8.87,5.94,18,7.86,27.25-13.18-10.27-29.49-31.21-36.28-73.49ZM935.9,737.8c11.03,14.76,26.47,41.71,27.09,69.32.15,6.47-.62,12.58-2.19,18.36-.41-10.5-1.54-21-3.41-31.31.99,14.23.76,28.61-1.07,42.73-.78,1.5-1.63,2.96-2.55,4.4,2.06-19.25,1.63-38.58-1.68-57.67-1.26-7.49-3.33-14.8-5.67-21.95,5.87,26.62,4.32,54.69-1.78,81.14-1.02-1.37-2.06-2.91-3.11-4.6.16-1.16.33-2.31.47-3.47,1.38-11.33,1.88-22.79,1.52-34.16-.86,10.92-2.44,21.83-4.89,32.51-8.92-17.35-15.99-47.48-2.73-95.31ZM853.17,953.23c-.37-2.9-.67-5.86-.88-8.81-.83-11.29-.79-22.6.11-33.92-1.91,10.31-3.17,20.73-3.64,31.21-1.52-5.76-2.24-11.85-2.05-18.3.81-27.61,16.43-54.45,27.56-69.14,13.04,48.16,5.76,78.22-3.33,95.45-2.38-10.76-3.95-21.67-4.72-32.7-.45,12.61.06,25.26,1.77,37.78-1.07,1.68-2.14,3.21-3.18,4.57-2.71-11.96-4.32-24.47-4.92-36.69-.76-14.94.32-29.96,3.69-44.59-8.73,25.49-10.55,52.79-7.88,79.57-.91-1.45-1.75-2.92-2.53-4.43ZM759.69,1010.37c6.54-26.84,27.42-49.84,41.36-61.88,2.71,49.82-10.67,77.7-23.14,92.66-.08-11.02.65-22.02,2.2-32.97-3.06,12.24-5.2,24.71-6.15,37.32-1.4,1.42-2.76,2.7-4.06,3.81-.16-12.27.87-24.83,2.83-36.91,2.37-14.77,6.56-29.23,12.9-42.84-13.87,23.16-21.35,49.52-24.3,76.31-.59-1.6-1.1-3.21-1.55-4.84.25-2.96.58-5.97.98-8.95,1.54-11.21,3.94-22.27,7.17-33.15-4.03,9.72-7.44,19.69-10.09,29.88-.3-5.99.3-12.14,1.84-18.44ZM927.02,1067.33c-18.18,15.4-51.72,37.46-87.3,40.45-8.37.7-16.35.24-23.95-1.34,3.76-.38,7.52-.82,11.3-1.35,9.75-1.37,19.41-3.23,28.92-5.57-18.34,2.42-37,3.26-55.43,1.99-1.96-.88-3.89-1.84-5.79-2.9,24.99,1.14,50.07-.98,74.39-6.77,9.56-2.21,18.84-5.47,27.87-9.05-33.95,9.69-70.15,9.91-104.84,4.13,1.69-1.42,3.59-2.89,5.68-4.37,6.42.5,12.82.76,19.3.83,9.84.08,19.67-.34,29.42-1.24-14.16-.24-28.37-1.42-42.34-3.73,21.68-12.88,60-24.39,122.76-11.08ZM1092.5,816.47c-11.74,20.73-35.61,53.01-67.98,68.1-7.61,3.55-15.26,5.87-22.93,7,3.4-1.66,6.77-3.37,10.13-5.16,8.68-4.65,17.1-9.73,25.22-15.21-16.38,8.6-33.6,15.83-51.33,21-2.17-.15-4.33-.39-6.5-.73,23.87-7.55,46.7-18.18,67.55-32.02,8.21-5.38,15.79-11.63,23.03-18.12-28.55,20.84-62.5,33.55-97.09,40.09,1.08-1.91,2.33-3.93,3.76-6.03,6.26-1.76,12.42-3.74,18.58-5.94,9.27-3.32,18.35-7.11,27.18-11.32-13.45,4.69-27.26,8.5-41.25,11.16,15.8-19.6,47.75-43.64,111.62-52.82ZM1114.11,538.9c-1.13,20.59-7.22,54.81-26.51,78.96-4.53,5.68-9.57,10.42-15.09,14.25,2-2.59,3.96-5.22,5.87-7.9,4.94-6.94,9.51-14.12,13.7-21.49-9.39,12.97-19.96,25.2-31.72,36.03-1.74.72-3.51,1.37-5.32,1.93,15.63-15.07,29.18-32.01,40.06-50.81,4.3-7.33,7.77-15.1,10.89-22.91-14.08,27.1-35.6,50.1-59.86,68.43.1-1.89.3-3.94.59-6.13,4.18-3.77,8.19-7.68,12.12-11.75,5.91-6.14,11.49-12.57,16.72-19.24-8.62,8.81-17.87,17.08-27.7,24.52,4.71-21.28,20.24-52.21,66.23-83.9ZM1030.34,395.28c11.33,17.23,26.78,48.36,25.62,79.25-.27,7.28-1.51,14.12-3.68,20.5.25-11.81-.3-23.65-1.71-35.34.16,16.01-1.07,32.13-4.09,47.83-.97,1.61-2.01,3.19-3.13,4.72,3.61-21.41,4.43-43.08,2-64.67-.9-8.45-2.73-16.76-4.86-24.9,4.79,30.16,1.16,61.45-7.45,90.61-1.04-1.58-2.11-3.35-3.16-5.28,1.12-5.52,2.02-11.04,2.76-16.66,1.1-8.45,1.77-16.94,2.01-25.41-1.7,12.21-4.21,24.36-7.69,36.18-8.86-19.91-14.77-54.01,3.38-106.83ZM965.37,529.22c14.8,5.57,38.42,17.91,51.64,37.59,3.1,4.61,5.37,9.38,6.9,14.28-5.16-7.4-10.82-14.47-16.94-21.06,7.3,9.82,13.78,20.33,18.98,31.38.13,1.44.19,2.89.19,4.36-7.41-14.87-16.66-28.64-27.88-40.91-4.37-4.83-9.25-9.16-14.25-13.25,16.57,16.54,28.44,37.58,36.25,59.55-1.36-.51-2.82-1.13-4.34-1.85-.44-.95-.87-1.9-1.32-2.84-4.24-8.82-9.18-17.34-14.7-25.4,4.45,8.34,8.37,17,11.55,25.91-14.48-8.35-33.52-26.83-46.1-67.77ZM938.45,1010.28c-8.03,2.44-15.93,3.66-23.68,3.71,3.59-1.16,7.17-2.38,10.75-3.68,9.25-3.38,18.3-7.23,27.1-11.51-17.43,6.21-35.49,10.95-53.77,13.57-2.12-.45-4.24-.99-6.33-1.64,24.69-4.12,48.79-11.43,71.38-22.2,8.88-4.17,17.27-9.3,25.35-14.7-31.2,16.62-66.6,24.43-101.76,26.03,1.33-1.74,2.86-3.56,4.57-5.44,6.45-.86,12.82-1.96,19.24-3.26,9.64-1.98,19.16-4.45,28.5-7.39-13.97,2.75-28.19,4.58-42.42,5.24,18.39-17.19,53.41-36.5,117.94-36.6-14.54,18.87-42.71,47.48-76.88,57.87Z"/>
  <path class="cls-2" d="M381.95,1070.72c13.47-18.99,17.66-40.2,12.45-63.05-9.1-39.92-46.04-74.47-59.91-82.15l-11.02-6.1-1.57,12.5c-6.2,49.42,1.8,82.4,13.09,104.01-19.15-15.82-37.3-32.86-54.38-50.94l3.2-2.95c17.13-15.77,25.65-35.64,25.32-59.07-.58-40.94-29.51-82.43-41.48-92.84l-9.51-8.27-4.14,11.9c-18.81,54.07-14.74,90.82-5.61,114.3-20.63-25.62-39.24-52.89-55.63-81.43l2.22-1.43c2.38-1.54,58.01-38.9,22.74-148.57l-3.86-12-9.7,8.04c-12.01,9.96-41.1,49.59-43.52,89.82-10.34-23.98-19.18-48.59-26.4-73.66l5.16-.74c2.41-.35,59.17-9.57,70.92-107.72l1.28-10.74-10.44,2.8c-13.14,3.52-51.07,24.64-66.91,55.99-5.26,10.4-7.75,21-7.52,31.69-4.62-19.62-8.26-39.47-10.84-59.46.44-6.42.25-15.05-1.88-25.27,10.73-.93,60.24-9.97,83.13-96.77l2.76-10.46-10.73,1.33c-13.5,1.67-53.98,17.34-74.01,46.2-1.45,2.08-2.76,4.19-3.95,6.33.09-8.04.35-16.09.79-24.14l1.1-.81c2.56-1.88,62.2-47.34,15.46-167.47l-5.11-13.14-10.3,9.63c-12.96,12.12-43.62,59.7-42.61,105.5.58,26.22,10.92,48.1,30.71,65.03l2.35,2.01c-1.15,14.84-1.71,29.68-1.69,44.51-12.36-22.66-34.88-48.52-75.16-73.95l-11.92-7.53-2.55,13.87c-3.21,17.45.41,73.94,28.46,110.16,16.06,20.73,37.37,32.18,63.36,34.03l3.06.22c2.37,17.66,5.53,35.21,9.45,52.6-16.44-21.08-44.91-43.89-94.15-61.53l-13.27-4.76.52,14.09c.66,17.73,16.47,72.08,51.73,101.34,16.44,13.64,34.94,20.51,55.16,20.51,4.6,0,9.3-.36,14.07-1.07l5.31-.79c6.38,18.33,13.6,36.38,21.62,54.08-23.98-20.34-63.08-39.78-126.64-46.32l-16.2-1.67,4.48,15.66c5.64,19.71,38.39,76.31,86.02,99.4,14.62,7.09,29.44,10.63,44.34,10.63,12.87,0,25.8-2.65,38.7-7.95l4.96-2.04c10.05,16.63,20.86,32.79,32.36,48.44-26.67-14.26-65.81-24.97-122.81-22.77l-16.28.63,6.64,14.88c8.35,18.73,48.74,70.15,99.14,86.31,10.88,3.49,21.6,5.23,32.13,5.23,17.41,0,34.29-4.75,50.46-14.24l6.56-3.85c9.63,9.96,19.59,19.59,29.86,28.88-29.15-8.63-70.03-11.16-126.07,3.14l-15.78,4.03,9.61,13.15c12.09,16.56,62.37,58.37,115.04,63.59,3.83.38,7.6.57,11.32.57,25.5,0,48.18-8.96,67.55-26.71l5.52-5.06c3.55,2.39,16.95,11.27,20.55,13.59l3.54-27.86c-7.01-4.27-13.91-8.71-20.73-13.27l.09-.13ZM337.35,948.96c13.76,12.26,34.28,35.57,40.42,62.49,1.45,6.35,1.96,12.54,1.56,18.55-2.51-10.25-5.72-20.35-9.64-30.11,3.83,13.79,6.49,27.98,7.52,42.23-.47,1.61-1,3.22-1.61,4.8-1.82-19.32-6.12-38.22-13.2-56.29-2.73-7.08-6.22-13.84-9.95-20.37,11.08,24.9,15.18,52.72,14.49,79.85-1.27-1.14-2.6-2.44-3.96-3.88-.08-1.16-.14-2.33-.23-3.49-.92-11.37-2.72-22.71-5.35-33.78,1.35,10.87,1.98,21.88,1.72,32.83-12.21-15.21-25.17-43.32-21.75-92.83ZM265.57,853.67c10.9,14.86,26.12,41.93,26.51,69.55.09,6.47-.73,12.58-2.35,18.34-.32-10.51-1.36-21.01-3.14-31.34.87,14.23.52,28.62-1.43,42.72-.79,1.49-1.65,2.95-2.58,4.38,2.22-19.23,1.96-38.57-1.2-57.68-1.19-7.5-3.2-14.83-5.48-22,5.65,26.67,3.86,54.72-2.47,81.12-1-1.38-2.04-2.93-3.07-4.62.17-1.15.35-2.3.5-3.47,1.47-11.31,2.07-22.77,1.81-34.15-.95,10.91-2.62,21.81-5.16,32.47-8.77-17.42-15.59-47.62-1.93-95.32ZM205.7,736.26c12.63,48.27,5.1,78.27-4.13,95.42-2.29-10.78-3.77-21.71-4.45-32.74-.55,12.61-.15,25.26,1.45,37.8-1.09,1.67-2.17,3.19-3.21,4.55-2.61-11.99-4.12-24.5-4.61-36.73-.64-14.95.57-29.96,4.07-44.56-8.94,25.42-11,52.7-8.55,79.5-.9-1.45-1.73-2.94-2.49-4.45-.34-2.9-.62-5.86-.81-8.81-.73-11.29-.6-22.61.39-33.91-2,10.29-3.34,20.71-3.9,31.18-1.47-5.77-2.14-11.87-1.89-18.31,1.04-27.6,16.89-54.32,28.14-68.91ZM193.91,631.39c-7.43,42.16-24.04,62.86-37.37,72.93,2.08-9.23,4.83-18.28,8.25-27.12-4.94,9.63-9.16,19.64-12.4,29.99-1.45.92-2.83,1.72-4.13,2.4,2.26-10.28,5.56-20.58,9.55-30.3,4.86-11.89,11.17-23.15,19.12-33.29-16.07,16.62-27.44,37.16-35.12,58.93-.18-1.46-.3-2.91-.35-4.36.77-2.39,1.62-4.79,2.52-7.16,3.47-9.07,7.63-17.84,12.45-26.31-5.24,7.31-10.02,14.95-14.2,22.92.92-5.03,2.58-10.02,5.08-14.96,10.69-21.15,32.61-36.31,46.61-43.67ZM31.65,675.1c51.45,21.71,72.93,48.85,81.85,68.73-3.52-1.68-6.99-3.45-10.4-5.28-7.43-3.99-14.67-8.37-21.69-13.12,10.81,9.09,22.31,17.35,34.52,24.48.75,2.1,1.36,4.1,1.84,5.95-12.41-5.86-24.55-13.05-35.74-20.95-13.7-9.63-26.19-20.93-36.77-33.99,16.49,25.31,39.35,45.76,64.85,61.88-1.89-.19-3.77-.46-5.62-.81-6.46-3.85-12.81-8.19-18.85-12.69-6.76-5.04-13.27-10.44-19.52-16.18,7.8,8.83,16.17,17.16,25.12,24.82-6.17-2.64-12.07-6.27-17.66-10.91-23.78-19.74-36.68-52.01-41.96-71.95ZM47.92,812.56c63.72,10.14,95.31,34.66,110.81,54.5-4.41-.92-8.8-1.94-13.12-3.05-9.43-2.43-18.77-5.34-27.96-8.73,14.64,7.21,29.82,13.31,45.49,17.93,1.42,2.15,2.65,4.22,3.71,6.17-15.61-3.15-31.06-7.85-45.88-13.64-18.03-7.02-35.16-16.25-50.63-27.98,25.42,23.8,56.81,40.48,89.81,51.5-2.18.31-4.35.52-6.53.63-8.3-2.53-16.61-5.64-24.62-9.02-8.97-3.79-17.77-8.05-26.36-12.76,11.18,7.74,22.86,14.77,35.02,20.89-7.64-1.25-15.25-3.69-22.8-7.35-32.13-15.58-55.51-48.22-66.94-69.12ZM127.17,564.07c13.51-19.47,37.32-31.45,52.2-36.8-13.19,40.73-32.5,58.93-47.1,67.06,3.33-8.85,7.31-17.43,11.93-25.72-6.23,8.86-11.79,18.19-16.43,27.99-1.56.71-3.04,1.31-4.43,1.8,3.66-9.87,8.35-19.61,13.65-28.68,6.45-11.1,14.26-21.39,23.54-30.33-18.22,14.24-32.31,33.01-42.94,53.51.02-1.47.11-2.92.26-4.37,1.1-2.26,2.27-4.52,3.49-6.74,4.69-8.5,10.02-16.62,15.96-24.33-6.2,6.51-11.99,13.42-17.24,20.73,1.61-4.85,3.94-9.57,7.1-14.11ZM98.58,504.32c-.59-3.27-1.1-6.62-1.52-9.96-1.58-12.57-2.18-25.21-1.83-37.91-1.55,11.67-2.35,23.44-2.27,35.22-2.05-6.38-3.18-13.21-3.34-20.46-.69-30.9,15.23-61.8,26.82-78.85,17.34,53.09,10.93,87.1,1.77,106.87-1.03-3.76-1.98-7.55-2.83-11.31-1.86-8.23-3.29-16.56-4.31-24.98.23,14.12,1.52,28.22,4.15,42.12-1.1,1.94-2.21,3.71-3.29,5.29-3.72-13.21-6.24-27.09-7.61-40.72-1.71-16.66-1.36-33.5,1.56-50.04-8.3,29.04-8.76,59.7-4.21,89.52-1.1-1.56-2.12-3.15-3.07-4.79ZM55.82,614.05c-18.92-24.44-24.5-58.74-25.32-79.35,45.5,32.37,60.57,63.54,64.95,84.88-3.07-2.41-6.08-4.89-9-7.41-6.38-5.51-12.5-11.36-18.32-17.52,8.58,11.22,18,21.79,28.37,31.4.27,2.22.43,4.3.51,6.21-10.84-8.42-21.12-18.07-30.33-28.22-11.28-12.38-21.01-26.12-28.5-41.17,10.59,28.29,28.45,53.21,49.84,74.48-1.81-.6-3.58-1.27-5.31-2.02-5.46-5.16-10.71-10.77-15.62-16.47-5.5-6.39-10.68-13.08-15.54-20.03,5.69,10.31,12.04,20.25,19.11,29.67-5.45-3.91-10.41-8.73-14.85-14.47ZM123.03,949.65c64.51,1.08,99.23,20.91,117.37,38.37-4.49-.29-8.99-.68-13.42-1.17-9.68-1.07-19.33-2.65-28.91-4.71,15.5,5.08,31.39,8.98,47.56,11.36,1.71,1.93,3.22,3.81,4.54,5.59-15.9-.93-31.86-3.4-47.34-7.05-18.83-4.41-37.09-11.14-54.06-20.58,28.52,19.99,61.94,32.09,96.17,38.35-2.11.61-4.24,1.12-6.37,1.55-8.58-1.34-17.24-3.25-25.65-5.47-9.42-2.49-18.73-5.47-27.9-8.92,12.16,6.09,24.71,11.41,37.61,15.76-7.75-.17-15.62-1.51-23.6-4.07-34-10.9-61.74-39.93-76-59.02ZM296.28,1107.66c-35.53-3.53-68.75-26.09-86.69-41.76,63.31-12.48,101.42-.37,122.81,12.9-4.46.66-8.93,1.22-13.37,1.67-9.69.98-19.46,1.46-29.25,1.46,16.22,1.71,32.58,2.2,48.88,1.13,2.07,1.53,3.95,3.05,5.61,4.51-15.74,2.43-31.86,3.36-47.76,3.04-19.34-.36-38.61-3.11-57.18-8.78,32.08,13.56,67.3,18.38,102.07,17.33-1.94,1.04-3.91,1.99-5.91,2.85-8.67.49-17.54.44-26.22.03-9.73-.46-19.46-1.42-29.15-2.87,13.17,3.41,26.55,5.97,40.07,7.52-7.61,1.46-15.59,1.8-23.93.97Z"/>
  <g>
    <g>
      <path class="cls-1" d="M0,1288.36c0-34.78,29.28-64.22,63.99-64.22,16.05.23,30.27,6.58,43.19,19.04l-14.3,19.49c-8.41-8.26-18.5-13.3-29.13-13.3-19.8,0-38.68,17.58-38.68,39.14s19.57,38.91,38.61,38.91c11.31,0,21.1-6.04,29.28-14.07l14.22,20.03c-10.86,10.78-24.08,18.88-42.73,18.88-35.55,0-64.44-29.28-64.44-63.91Z"/>
      <path class="cls-1" d="M230.4,1226.67v123.23h-24.69v-49.38h-44.26v49.38h-24.69v-123.23h24.69v49.31h44.26v-49.31h24.69Z"/>
      <path class="cls-1" d="M342.3,1332.7h-49.31l-7.87,17.2h-26.76l58.86-126.29h.76l58.94,126.29h-26.83l-7.8-17.2ZM332.67,1311.6l-14.98-32.95-15.06,32.95h30.04Z"/>
      <path class="cls-1" d="M525.6,1223.61v126.29h-24.77v-53.67l-35.47,51.6h-.15l-35.55-51.6v53.67h-24.77v-126.29h1.38l59.02,81.42,58.94-81.42h1.38Z"/>
      <path class="cls-1" d="M562.66,1226.67h43.27c23.85,0,43.34,18.73,43.34,41.66s-19.49,41.51-43.34,41.51h-18.5v40.06h-24.77v-123.23ZM624.51,1268.1c0-9.33-8.33-16.89-18.58-16.89h-18.5v34.09l18.5.08c10.24.08,18.58-7.72,18.58-17.28Z"/>
      <path class="cls-1" d="M678.85,1226.67h24.77v123.23h-24.77v-123.23Z"/>
      <path class="cls-1" d="M735.33,1288.44c0-35.39,28.82-64.29,64.06-64.29s64.14,28.9,64.14,64.29-28.9,63.83-64.21,63.83-63.99-28.74-63.99-63.83ZM838.45,1288.29c0-21.56-17.58-39.14-39.14-39.14s-38.99,17.58-38.99,39.14,17.51,38.91,38.99,38.91,39.14-17.51,39.14-38.91Z"/>
      <path class="cls-1" d="M994.31,1226.36v125.83h-1.15l-73.16-71.17v69.03h-24.77v-125.68h1.22l73.01,71.02v-69.03h24.85Z"/>
      <path class="cls-1" d="M1024.96,1328.65l19.8-13.91c5.43,8.71,13.3,12.69,23.93,12.69,11.62,0,19.42-4.74,19.42-11.31,0-9.02-14.75-16.13-27.67-22.55-13.84-6.88-29.05-14.45-29.05-34.1,0-21.33,18.04-35.39,40.67-35.39,16.82,0,30.73,6.96,36.31,21.86l-18.27,12.77c-3.67-7.34-10.78-10.32-17.66-10.32-9.25,0-16.13,5.35-16.13,11.7,0,7.34,9.33,9.86,23.47,16.51,20.41,9.63,33.25,20.03,33.25,38.99,0,22.47-18.35,36.77-44.72,36.77-20.18,0-35.09-8.41-43.34-23.7Z"/>
    </g>
    <g>
      <path class="cls-2" d="M0,1288.36c0-34.78,29.28-64.22,63.99-64.22,16.05.23,30.27,6.58,43.19,19.04l-14.3,19.49c-8.41-8.26-18.5-13.3-29.13-13.3-19.8,0-38.68,17.58-38.68,39.14s19.57,38.91,38.61,38.91c11.31,0,21.1-6.04,29.28-14.07l14.22,20.03c-10.86,10.78-24.08,18.88-42.73,18.88-35.55,0-64.44-29.28-64.44-63.91Z"/>
      <path class="cls-2" d="M230.4,1226.67v123.23h-24.69v-49.38h-44.26v49.38h-24.69v-123.23h24.69v49.31h44.26v-49.31h24.69Z"/>
      <path class="cls-2" d="M342.3,1332.7h-49.31l-7.87,17.2h-26.76l58.86-126.29h.76l58.94,126.29h-26.83l-7.8-17.2ZM332.67,1311.6l-14.98-32.95-15.06,32.95h30.04Z"/>
      <path class="cls-2" d="M525.6,1223.61v126.29h-24.77v-53.67l-35.47,51.6h-.15l-35.55-51.6v53.67h-24.77v-126.29h1.38l59.02,81.42,58.94-81.42h1.38Z"/>
      <path class="cls-2" d="M562.66,1226.67h43.27c23.85,0,43.34,18.73,43.34,41.66s-19.49,41.51-43.34,41.51h-18.5v40.06h-24.77v-123.23ZM624.51,1268.1c0-9.33-8.33-16.89-18.58-16.89h-18.5v34.09l18.5.08c10.24.08,18.58-7.72,18.58-17.28Z"/>
      <path class="cls-2" d="M678.85,1226.67h24.77v123.23h-24.77v-123.23Z"/>
      <path class="cls-2" d="M735.33,1288.44c0-35.39,28.82-64.29,64.06-64.29s64.14,28.9,64.14,64.29-28.9,63.83-64.21,63.83-63.99-28.74-63.99-63.83ZM838.45,1288.29c0-21.56-17.58-39.14-39.14-39.14s-38.99,17.58-38.99,39.14,17.51,38.91,38.99,38.91,39.14-17.51,39.14-38.91Z"/>
      <path class="cls-2" d="M994.31,1226.36v125.83h-1.15l-73.16-71.17v69.03h-24.77v-125.68h1.22l73.01,71.02v-69.03h24.85Z"/>
      <path class="cls-2" d="M1024.96,1328.65l19.8-13.91c5.43,8.71,13.3,12.69,23.93,12.69,11.62,0,19.42-4.74,19.42-11.31,0-9.02-14.75-16.13-27.67-22.55-13.84-6.88-29.05-14.45-29.05-34.1,0-21.33,18.04-35.39,40.67-35.39,16.82,0,30.73,6.96,36.31,21.86l-18.27,12.77c-3.67-7.34-10.78-10.32-17.66-10.32-9.25,0-16.13,5.35-16.13,11.7,0,7.34,9.33,9.86,23.47,16.51,20.41,9.63,33.25,20.03,33.25,38.99,0,22.47-18.35,36.77-44.72,36.77-20.18,0-35.09-8.41-43.34-23.7Z"/>
    </g>
  </g>
  <g>
    <g>
      <g>
        <path class="cls-1" d="M26.69,1041.59v8.38h12.38v5.11h-12.38v9.05h14.35v5.11h-19.48v-32.71h19.48v5.05h-14.35Z"/>
        <path class="cls-1" d="M48.65,1063.5l4.06-2.9c1.46,2.56,4.18,4.02,7.33,4.02,3.67,0,6.45-1.77,6.45-4.26,0-3.02-4.3-4.85-8.12-6.49-3.84-1.71-8.1-3.69-8.1-8.83s4.65-9.09,10.53-9.09c4.67,0,8.16,2.25,9.5,5.84l-3.82,2.64c-1.01-2.21-3.27-3.45-5.64-3.45-3,0-5.4,1.87-5.4,4.18,0,2.56,3.02,3.47,7,5.17,5.17,2.27,9.19,4.77,9.19,9.92,0,5.8-5.03,9.54-11.67,9.54-5.38,0-9.46-2.52-11.32-6.29Z"/>
        <path class="cls-1" d="M100.71,1041.63h-8.77v27.62h-5.16v-27.62h-8.77v-5.09h22.69v5.09Z"/>
      </g>
      <g>
        <path class="cls-2" d="M26.69,1041.59v8.38h12.38v5.11h-12.38v9.05h14.35v5.11h-19.48v-32.71h19.48v5.05h-14.35Z"/>
        <path class="cls-2" d="M48.65,1063.5l4.06-2.9c1.46,2.56,4.18,4.02,7.33,4.02,3.67,0,6.45-1.77,6.45-4.26,0-3.02-4.3-4.85-8.12-6.49-3.84-1.71-8.1-3.69-8.1-8.83s4.65-9.09,10.53-9.09c4.67,0,8.16,2.25,9.5,5.84l-3.82,2.64c-1.01-2.21-3.27-3.45-5.64-3.45-3,0-5.4,1.87-5.4,4.18,0,2.56,3.02,3.47,7,5.17,5.17,2.27,9.19,4.77,9.19,9.92,0,5.8-5.03,9.54-11.67,9.54-5.38,0-9.46-2.52-11.32-6.29Z"/>
        <path class="cls-2" d="M100.71,1041.63h-8.77v27.62h-5.16v-27.62h-8.77v-5.09h22.69v5.09Z"/>
      </g>
    </g>
    <g>
      <g>
        <path class="cls-1" d="M1046.52,1064.13v5.11h-24.52v-1.1c13.46-10.9,18.93-16.56,18.93-20.54,0-3.69-3-6.43-6.13-6.43-3.82,0-6.88,3.04-6.88,6.98l-4.69-1.14c0-6.15,5.09-10.98,11.41-10.98s11.45,5.28,11.45,11.3c0,5.66-5.76,12.05-13.17,16.78h13.6Z"/>
        <path class="cls-1" d="M1053.83,1052.89c0-9.86,5.4-16.84,13.35-16.84s13.35,6.98,13.35,16.84-5.4,16.82-13.35,16.82-13.35-6.98-13.35-16.82ZM1075.38,1052.89c0-6.84-3.29-11.69-8.22-11.69s-8.22,4.85-8.22,11.69,3.27,11.65,8.22,11.65,8.22-4.83,8.22-11.65Z"/>
        <path class="cls-1" d="M1112.36,1064.13v5.11h-24.52v-1.1c13.46-10.9,18.93-16.56,18.93-20.54,0-3.69-3-6.43-6.13-6.43-3.82,0-6.88,3.04-6.88,6.98l-4.69-1.14c0-6.15,5.09-10.98,11.41-10.98s11.45,5.28,11.45,11.3c0,5.66-5.76,12.05-13.17,16.78h13.6Z"/>
        <path class="cls-1" d="M1129.23,1036.23v33.02h-5.13v-26.42l-4.42,1.32v-5.36l8.06-2.56h1.5Z"/>
      </g>
      <g>
        <path class="cls-2" d="M1046.52,1064.13v5.11h-24.52v-1.1c13.46-10.9,18.93-16.56,18.93-20.54,0-3.69-3-6.43-6.13-6.43-3.82,0-6.88,3.04-6.88,6.98l-4.69-1.14c0-6.15,5.09-10.98,11.41-10.98s11.45,5.28,11.45,11.3c0,5.66-5.76,12.05-13.17,16.78h13.6Z"/>
        <path class="cls-2" d="M1053.83,1052.89c0-9.86,5.4-16.84,13.35-16.84s13.35,6.98,13.35,16.84-5.4,16.82-13.35,16.82-13.35-6.98-13.35-16.82ZM1075.38,1052.89c0-6.84-3.29-11.69-8.22-11.69s-8.22,4.85-8.22,11.69,3.27,11.65,8.22,11.65,8.22-4.83,8.22-11.65Z"/>
        <path class="cls-2" d="M1112.36,1064.13v5.11h-24.52v-1.1c13.46-10.9,18.93-16.56,18.93-20.54,0-3.69-3-6.43-6.13-6.43-3.82,0-6.88,3.04-6.88,6.98l-4.69-1.14c0-6.15,5.09-10.98,11.41-10.98s11.45,5.28,11.45,11.3c0,5.66-5.76,12.05-13.17,16.78h13.6Z"/>
        <path class="cls-2" d="M1129.23,1036.23v33.02h-5.13v-26.42l-4.42,1.32v-5.36l8.06-2.56h1.5Z"/>
      </g>
    </g>
  </g>
  <g>
    <g>
      <path class="cls-1" d="M505.03,1150.24h3.66v23.32h-3.66v-23.32Z"/>
      <path class="cls-1" d="M543.77,1150.18v23.78h-.17l-14.91-15.58v15.2h-3.66v-23.75h.19l14.88,15.55v-15.2h3.67Z"/>
      <path class="cls-1" d="M578.76,1161.93c0,7.16-4.61,11.63-12.02,11.63h-6.64v-23.32h6.64c7.41-.01,12.02,4.47,12.02,11.69ZM575.06,1161.91c0-4.95-3.21-8.04-8.33-8.04h-2.98v16.04h3.02c5.09,0,8.29-3.08,8.29-8Z"/>
      <path class="cls-1" d="M593.97,1150.24h3.66v23.32h-3.66v-23.32Z"/>
      <path class="cls-1" d="M628.64,1170.02h-11.04l-1.59,3.54h-3.96l10.96-23.8h.22l10.96,23.8h-3.96l-1.59-3.54ZM627.22,1166.88l-4.09-9.11-4.11,9.11h8.2Z"/>
    </g>
    <g>
      <path class="cls-2" d="M505.03,1150.24h3.66v23.32h-3.66v-23.32Z"/>
      <path class="cls-2" d="M543.77,1150.18v23.78h-.17l-14.91-15.58v15.2h-3.66v-23.75h.19l14.88,15.55v-15.2h3.67Z"/>
      <path class="cls-2" d="M578.76,1161.93c0,7.16-4.61,11.63-12.02,11.63h-6.64v-23.32h6.64c7.41-.01,12.02,4.47,12.02,11.69ZM575.06,1161.91c0-4.95-3.21-8.04-8.33-8.04h-2.98v16.04h3.02c5.09,0,8.29-3.08,8.29-8Z"/>
      <path class="cls-2" d="M593.97,1150.24h3.66v23.32h-3.66v-23.32Z"/>
      <path class="cls-2" d="M628.64,1170.02h-11.04l-1.59,3.54h-3.96l10.96-23.8h.22l10.96,23.8h-3.96l-1.59-3.54ZM627.22,1166.88l-4.09-9.11-4.11,9.11h8.2Z"/>
    </g>
  </g>
</svg>