<svg width="337" height="131" viewBox="0 0 337 131" fill="none" xmlns="http://www.w3.org/2000/svg">
<path d="M131.694 66.8499C133.8 68.0613 135.142 70.318 135.142 74.2766C135.142 82.1625 129.856 83.8252 122.43 83.8252H101.925V50.9082H122.43C129.322 50.9082 134.515 52.5338 134.515 60.0035C134.515 63.4267 133.441 65.5408 131.694 66.8499ZM110.476 64.2845H122.606C124.982 64.2845 126.235 63.3818 126.235 61.041C126.235 58.4306 124.623 57.6628 122.521 57.6628H110.476V64.2845ZM110.476 69.7768V76.7053H122.651C124.846 76.7053 126.503 75.9902 126.503 73.2C126.503 70.4099 125.072 69.7768 122.785 69.7768H110.476Z" fill="white"/>
<path d="M169.885 70.5447H148.531V76.7072H170.063V83.8252H139.756V50.9082H169.974V58.0262H148.531V64.1965H169.885V70.5467V70.5447Z" fill="white"/>
<path d="M205.434 83.823H188.647C178.975 83.823 174.144 81.0309 174.144 67.3909C174.144 53.7509 178.977 50.906 188.647 50.906H205.345V58.1588H188.692C184.306 58.1588 182.783 59.9564 182.783 67.3909C182.783 74.8254 184.306 76.578 188.692 76.578H197.733V66.7148H205.434V83.823Z" fill="white"/>
<path d="M224.692 50.9082H234.182L250.209 83.8252H241.344L238.345 77.4302H220.795L217.796 83.8252H208.665L224.692 50.9082ZM223.929 70.7264H235.165L229.525 58.7491L223.93 70.7264H223.929Z" fill="white"/>
<path d="M277.116 50.9082L283.874 72.6139L290.098 50.9082H298.784L288.667 83.8252H279.398L272.506 60.6815L265.388 83.8252H256.213L246.006 50.9082H255.092L261.227 72.7037L267.806 50.9082H277.12H277.116Z" fill="white"/>
<path d="M328.896 74.2317V50.9082H337V83.8252H326.345L310.407 61.3146V83.8252H302.262V50.9082H312.649L328.898 74.2317H328.896Z" fill="white"/>
<path d="M33.9072 37.626V90.7247C33.9072 91.3362 34.2491 91.897 34.7911 92.1725L72.1504 111.209C73.2247 111.756 74.4933 110.971 74.4933 109.761V19.4862C74.4933 18.2885 73.25 17.503 72.1776 18.0247L34.8183 36.1645C34.2608 36.4361 33.9053 37.0027 33.9053 37.626H33.9072Z" fill="url(#paint0_linear_149_742)"/>
<path d="M17.6709 32.1774V95.9872C17.6709 96.7219 18.0827 97.396 18.7335 97.7281L63.6304 120.606C64.9203 121.265 66.4472 120.321 66.4472 118.865V10.378C66.4472 8.93992 64.9514 7.99619 63.6634 8.62143L18.7666 30.4209C18.0963 30.7472 17.6709 31.4291 17.6709 32.1774Z" fill="url(#paint1_linear_149_742)"/>
<path d="M0 27.6489V101.93C0 102.785 0.477894 103.569 1.23747 103.956L53.5009 130.587C55.0025 131.353 56.7801 130.255 56.7801 128.561V2.27386C56.7801 0.599388 55.0395 -0.498692 53.5397 0.228151L1.27633 25.6051C0.495378 25.9842 0 26.7775 0 27.6489Z" fill="url(#paint2_linear_149_742)"/>
<path opacity="0.3" d="M56.7803 11.9642V117.116L63.6301 120.608C63.6301 120.608 66.447 121.379 66.447 118.867V10.3776C66.447 10.3776 65.8933 7.53865 63.6631 8.6211L56.7803 11.9642Z" fill="url(#paint3_linear_149_742)"/>
<path opacity="0.3" d="M66.4551 20.7799V108.302L72.1568 111.207C72.1568 111.207 74.5016 111.85 74.5016 109.76V19.461C74.5288 18.531 73.4428 17.3645 72.1859 17.9995L66.457 20.7818L66.4551 20.7799Z" fill="url(#paint4_linear_149_742)"/>
<path d="M53.5397 0.228151L1.27633 25.6051C0.495378 25.9842 0 26.7794 0 27.6509V35.3062C7.32383 37.8306 15.7841 42.7329 25.3032 51.371C62.3516 84.9992 7.4909 97.0175 18.5582 107.721C20.6155 109.71 21.4819 111.996 21.7073 114.389L53.5009 130.589C55.0025 131.355 56.7801 130.257 56.7801 128.563V2.27386C56.7801 0.599388 55.0395 -0.498692 53.5397 0.228151Z" fill="url(#paint5_linear_149_742)"/>
<path d="M14.7314 96.9512L8.92285 94.0966V60.8806L14.7314 58.9775V96.9512Z" fill="white"/>
<path d="M24.3662 101.497L18.5576 98.7149V47.4314L24.3662 45.5283V101.497Z" fill="white"/>
<path d="M34.0009 106.115L28.1924 103.333V30.5176L34.0009 28.6165V106.115Z" fill="white"/>
<path d="M43.6357 110.877L37.8271 107.95V42.5417L43.6357 40.6387V110.877Z" fill="white"/>
<defs>
<linearGradient id="paint0_linear_149_742" x1="54.2002" y1="-9.29639" x2="54.2002" y2="163.194" gradientUnits="userSpaceOnUse">
<stop stop-color="#4491E3"/>
<stop offset="1" stop-color="#3271B8"/>
</linearGradient>
<linearGradient id="paint1_linear_149_742" x1="42.0591" y1="-9.2976" x2="42.0591" y2="163.193" gradientUnits="userSpaceOnUse">
<stop stop-color="#4491E3"/>
<stop offset="1" stop-color="#3271B8"/>
</linearGradient>
<linearGradient id="paint2_linear_149_742" x1="28.39" y1="-9.29701" x2="28.39" y2="163.193" gradientUnits="userSpaceOnUse">
<stop stop-color="#4491E3"/>
<stop offset="1" stop-color="#3271B8"/>
</linearGradient>
<linearGradient id="paint3_linear_149_742" x1="52.7337" y1="64.9378" x2="73.4039" y2="64.2637" gradientUnits="userSpaceOnUse">
<stop stop-color="#1D4276"/>
<stop offset="1" stop-color="#1D4276" stop-opacity="0"/>
</linearGradient>
<linearGradient id="paint4_linear_149_742" x1="63.0865" y1="64.8848" x2="80.2967" y2="64.3227" gradientUnits="userSpaceOnUse">
<stop stop-color="#1D4276"/>
<stop offset="1" stop-color="#1D4276" stop-opacity="0"/>
</linearGradient>
<linearGradient id="paint5_linear_149_742" x1="28.39" y1="-26.3388" x2="28.39" y2="151.652" gradientUnits="userSpaceOnUse">
<stop stop-color="#4491E3"/>
<stop offset="1" stop-color="#3271B8"/>
</linearGradient>
</defs>
</svg>
